<?xml version="1.0" encoding="utf-8"?>
<!-- Generator: Adobe Illustrator 27.3.1, SVG Export Plug-In . SVG Version: 6.00 Build 0)  -->
<svg version="1.1" id="Layer_1" xmlns="http://www.w3.org/2000/svg" xmlns:xlink="http://www.w3.org/1999/xlink" x="0px" y="0px"
	 viewBox="0 0 614.1 139.4" style="enable-background:new 0 0 614.1 139.4;" xml:space="preserve">
<style type="text/css">
	.st0{fill:#13D196;}
	.st1{fill:#02A06B;}
	.st2{fill:url(#SVGID_1_);}
	.st3{fill:url(#SVGID_00000174568744674396918670000012565578821759320978_);}
	.st4{fill:#171918;}
</style>
<g>
	<g>
		<g>
			<g>
				<path class="st0" d="M79.5,127.9c-32.1,0-58.2-26.1-58.2-58.2s26.1-58.2,58.2-58.2c32.1,0,58.2,26.1,58.2,58.2
					S111.6,127.9,79.5,127.9z M79.5,37.7c-17.6,0-32,14.4-32,32s14.4,32,32,32c17.6,0,32-14.4,32-32S97.2,37.7,79.5,37.7z"/>
			</g>
		</g>
		<path class="st1" d="M63.5,97.6c-2.6,0.8-5.3,1.2-8.1,1.2c-16.1,0-29.1-13.3-29.1-29.8c0-16.4,13-29.7,29.1-29.7
			c3.5,0,6.8,0.6,9.9,1.8C55,46.4,48,57.3,48,69.9C48,81.7,54.2,92,63.5,97.6z"/>
		<g>
			<linearGradient id="SVGID_1_" gradientUnits="userSpaceOnUse" x1="77.5124" y1="23.1291" x2="116.2388" y2="61.405">
				<stop  offset="0" style="stop-color:#13A65E;stop-opacity:0"/>
				<stop  offset="0.9392" style="stop-color:#13A65E"/>
			</linearGradient>
			<path class="st2" d="M97.6,20.9c-10.3,0-18.9,7.3-21,17c-4.3,0.3-8.4,1.5-12,3.3c5.5,2,10.2,5.5,13.6,10.1
				c0.7,1.5,1.6,2.9,2.6,4.2c3.9,5,10,8.2,16.8,8.2c4.3,0,8.2-1.3,11.6-3.4c5.9-3.8,9.8-10.5,9.8-18
				C119.1,30.5,109.5,20.9,97.6,20.9z"/>
			
				<linearGradient id="SVGID_00000155121915842595296520000016473673806488347274_" gradientUnits="userSpaceOnUse" x1="77.5124" y1="268.0075" x2="116.2388" y2="306.2835" gradientTransform="matrix(1 0 0 -1 0 384.1274)">
				<stop  offset="0" style="stop-color:#13A65E;stop-opacity:0"/>
				<stop  offset="0.9313" style="stop-color:#13A65E"/>
			</linearGradient>
			<path style="fill:url(#SVGID_00000155121915842595296520000016473673806488347274_);" d="M97.6,118.4c-10.3,0-18.9-7.3-21-17
				c-4.3-0.3-8.4-1.5-12-3.3c5.5-2,10.2-5.5,13.6-10.1c0.7-1.5,1.6-2.9,2.6-4.2c3.9-5,10-8.2,16.8-8.2c4.3,0,8.2,1.3,11.6,3.4
				c5.9,3.8,9.8,10.5,9.8,18C119.1,108.8,109.5,118.4,97.6,118.4z"/>
		</g>
	</g>
	<g>
		<path class="st4" d="M189.8,47.2l-6.4,5.2c-1.1-1.4-2.5-2.4-4.1-3.1c-1.6-0.7-3.4-1.1-5.2-1.1c-2.5,0-5,0.7-7.2,2
			c-2.3,1.3-4.1,3.2-5.3,5.6c-1.3,2.4-1.9,5.2-1.9,8.2c0,2.9,0.6,5.5,1.8,7.9c1.2,2.3,3,4.1,5.3,5.4c2.3,1.3,4.8,1.9,7.3,1.9
			c4.2,0,7.6-1.7,9.9-5.1l6.9,4.9c-1.7,2.3-3.9,4.2-6.7,5.6c-2.8,1.4-6,2.1-9.7,2.1c-5.2,0-9.5-1.2-13-3.5c-3.5-2.4-6.2-5.4-7.9-9.3
			c-1.5-3.2-2.3-6.6-2.3-10.3c0-4.3,1-8.3,3-11.8c2-3.5,4.7-6.3,8.2-8.2c3.4-1.9,7.3-2.9,11.7-2.9c2.7,0,5.1,0.4,7.3,1.1
			c2.1,0.7,3.9,1.6,5.4,2.7C187.9,45,188.8,46,189.8,47.2z"/>
		<path class="st4" d="M214,66.9c0-2.2-0.6-3.8-1.6-4.8s-2.6-1.5-4.7-1.5c-1.5,0-2.8,0.3-4.1,0.8c-1.3,0.5-2.5,1.4-3.8,2.5l-4.2-4.3
			c3.4-3.1,7.6-4.7,12.8-4.7c2.5,0,4.6,0.4,6.3,1.1c1.7,0.7,3,1.8,4.1,3.2c1,1.4,1.7,2.9,2,4.5c0.2,1.2,0.4,3.1,0.3,5.9v6.9
			c0,4.1,0.1,7.2,0.2,9.2h-6.8c-0.1-1.3-0.1-2.7-0.1-4.2c-2.2,3.3-5.5,4.9-9.9,4.9c-3.2,0-5.8-0.9-7.7-2.6c-1.9-1.8-2.8-4-2.8-6.7
			c0-2.4,0.8-4.5,2.4-6.2c1.6-1.7,4-2.8,7.3-3.4C206.1,67.1,209.5,66.9,214,66.9z M214.1,71.9c-2.9,0.1-4.7,0.1-5.4,0.2
			c-1.9,0.2-3.4,0.5-4.5,1c-1.1,0.5-1.8,1-2.2,1.7c-0.4,0.7-0.7,1.4-0.7,2.1c0,1.1,0.5,2.1,1.4,2.9c0.9,0.8,2.2,1.2,3.9,1.2
			c1.6,0,3-0.3,4.1-1c1.2-0.7,2-1.6,2.5-2.8C213.8,75.9,214.1,74.2,214.1,71.9z"/>
		<path class="st4" d="M248.6,55.8l-0.1,7.3c-1.3-0.3-2.5-0.5-3.5-0.5c-2,0-3.7,0.4-4.9,1.3c-1.2,0.9-2.1,2-2.6,3.5
			c-0.4,1-0.5,2.8-0.5,5.2v13.1h-7.5V67.1c0-4.5,0-8.3-0.1-11.3h7.4l0.1,5.2c1.1-1.8,2.3-3.1,3.8-4c1.5-0.9,3.3-1.3,5.4-1.3
			C246.8,55.6,247.6,55.6,248.6,55.8z"/>
		<path class="st4" d="M253.6,85.7v-47h7.5v20.9c1.2-1.5,2.6-2.7,4.3-3.5c1.7-0.8,3.6-1.2,5.6-1.2c2.1,0,4.1,0.4,5.8,1.1
			c1.7,0.7,3.2,1.8,4.5,3.1c1.2,1.3,2.3,3,3.1,4.9c0.8,1.9,1.2,4.1,1.2,6.7c0,3-0.6,5.6-1.8,8c-1.2,2.4-3,4.2-5.3,5.6
			c-2.3,1.3-4.9,2-7.6,2c-2.2,0-4.2-0.4-6-1.3c-1.7-0.9-3.2-2.1-4.3-3.6v4.2H253.6z M260.5,70.7c0,3.2,1.1,5.6,3.3,7.3
			c1.6,1.2,3.4,1.8,5.5,1.8c2.5,0,4.6-0.8,6.2-2.5c1.7-1.7,2.5-3.9,2.5-6.5c0-2.6-0.8-4.7-2.5-6.4c-1.6-1.7-3.7-2.5-6.3-2.5
			c-1.8,0-3.3,0.4-4.7,1.2c-1.4,0.8-2.4,1.9-3,3.3C260.9,67.8,260.5,69.2,260.5,70.7z"/>
		<path class="st4" d="M323.4,71.6c0,1.2-0.3,2.7-0.8,4.6c-0.5,1.9-1.5,3.6-2.9,5.2c-1.4,1.6-3.1,2.8-5.2,3.8
			c-2.1,0.9-4.6,1.4-7.6,1.4c-4.8,0-8.7-1.5-11.6-4.4c-2.9-2.9-4.4-6.8-4.4-11.5c0-4.8,1.6-8.6,4.7-11.5c3.2-2.9,7-4.3,11.6-4.3
			c2.5,0,4.8,0.4,6.9,1.2c2.1,0.8,3.9,2.1,5.4,3.8c1.5,1.7,2.6,3.7,3.2,5.9C323.2,67.3,323.4,69.2,323.4,71.6z M315.8,71.1
			c0-2.7-0.7-5-2.2-6.9c-1.4-1.8-3.6-2.7-6.4-2.7c-2.5,0-4.6,0.9-6.2,2.6c-1.7,1.7-2.5,4-2.5,6.8s0.8,5.1,2.4,6.7
			c1.6,1.7,3.6,2.5,6.1,2.5c1.8,0,3.3-0.4,4.7-1.2c1.4-0.8,2.4-1.9,3.1-3.3C315.5,74.1,315.8,72.6,315.8,71.1z"/>
		<path class="st4" d="M337.9,85.7h-7.5V67.1c0-4.5,0-8.3-0.1-11.3h7.1v4.9c1-1.7,2.2-3,3.8-4c1.5-1,3.5-1.5,5.9-1.5
			c2.1,0,3.9,0.4,5.3,1.2c1.5,0.8,2.6,1.7,3.4,2.9c0.8,1.1,1.4,2.4,1.6,3.7c0.3,1.3,0.5,3.5,0.5,6.6v16.1h-7.5V69.6
			c0-2-0.2-3.5-0.6-4.5c-0.4-1-1-1.8-1.9-2.4c-0.9-0.6-1.9-0.9-3.1-0.9c-1.5,0-2.8,0.4-4,1.2c-1.2,0.8-2,1.9-2.4,3.3
			c-0.3,1.1-0.5,2.9-0.5,5.7V85.7z"/>
		<path class="st0" d="M366.6,41.6h29.1v7.1h-21.4v10.9h19.9v7.1h-19.9v11.9h22.5v7.1h-30.2V41.6z"/>
		<path class="st0" d="M411.5,85.7H404V67.1c0-4.5,0-8.3-0.1-11.3h7.1v4.9c1-1.7,2.2-3,3.8-4c1.5-1,3.5-1.5,5.9-1.5
			c2.1,0,3.9,0.4,5.3,1.2c1.5,0.8,2.6,1.7,3.4,2.9c0.8,1.1,1.4,2.4,1.6,3.7c0.3,1.3,0.5,3.5,0.5,6.6v16.1H424V69.6
			c0-2-0.2-3.5-0.6-4.5c-0.4-1-1-1.8-1.9-2.4c-0.9-0.6-1.9-0.9-3.1-0.9c-1.5,0-2.8,0.4-4,1.2c-1.2,0.8-2,1.9-2.4,3.3
			c-0.3,1.1-0.5,2.9-0.5,5.7V85.7z"/>
		<path class="st0" d="M457.7,55.8V62h-8.2v12.5c0,1.8,0.2,3.1,0.7,3.9c0.7,1.1,1.9,1.6,3.7,1.6c1.4,0,2.7-0.3,4-0.8l0.1,6.3
			c-1.9,0.6-3.9,0.9-6,0.9c-2.7,0-4.8-0.5-6.2-1.5c-1.5-1-2.5-2.3-3-3.9c-0.3-1-0.5-2.9-0.5-5.8V62H436v-6.2h6.3v-8.6h7.2v8.6H457.7
			z"/>
		<path class="st0" d="M483.1,55.8L483,63c-1.3-0.3-2.5-0.5-3.5-0.5c-2,0-3.7,0.4-4.9,1.3c-1.2,0.9-2.1,2-2.6,3.5
			c-0.4,1-0.5,2.8-0.5,5.2v13.1h-7.5V67.1c0-4.5,0-8.3-0.1-11.3h7.4l0.1,5.2c1.1-1.8,2.3-3.1,3.8-4c1.5-0.9,3.3-1.3,5.4-1.3
			C481.3,55.6,482.1,55.6,483.1,55.8z"/>
		<path class="st0" d="M518.8,71.6c0,1.2-0.3,2.7-0.8,4.6c-0.5,1.9-1.5,3.6-2.9,5.2c-1.4,1.6-3.1,2.8-5.2,3.8
			c-2.1,0.9-4.6,1.4-7.6,1.4c-4.8,0-8.7-1.5-11.6-4.4c-2.9-2.9-4.4-6.8-4.4-11.5c0-4.8,1.6-8.6,4.7-11.5c3.2-2.9,7-4.3,11.6-4.3
			c2.5,0,4.8,0.4,6.9,1.2c2.1,0.8,3.9,2.1,5.4,3.8c1.5,1.7,2.6,3.7,3.2,5.9C518.6,67.3,518.8,69.2,518.8,71.6z M511.2,71.1
			c0-2.7-0.7-5-2.2-6.9c-1.4-1.8-3.6-2.7-6.4-2.7c-2.5,0-4.6,0.9-6.2,2.6c-1.7,1.7-2.5,4-2.5,6.8s0.8,5.1,2.4,6.7
			c1.6,1.7,3.6,2.5,6.1,2.5c1.8,0,3.3-0.4,4.7-1.2c1.4-0.8,2.4-1.9,3.1-3.3C510.9,74.1,511.2,72.6,511.2,71.1z"/>
		<path class="st0" d="M533,55.8v4.1c2.6-3.2,6-4.8,10.2-4.8c3.8,0,7.1,1.2,9.9,3.7c3.3,2.9,4.9,6.8,4.9,11.9
			c0,4.7-1.4,8.5-4.2,11.4c-2.8,2.9-6.4,4.4-10.8,4.4c-2.2,0-4.1-0.4-5.7-1.2s-2.9-2-4-3.4v18.1h-7.5V55.8H533z M532.8,70.7
			c0,2.6,0.8,4.8,2.5,6.5c1.6,1.7,3.7,2.5,6.3,2.5c2.5,0,4.6-0.8,6.3-2.5c1.6-1.7,2.5-3.9,2.5-6.6c0-2.6-0.8-4.7-2.4-6.4
			c-1.6-1.7-3.7-2.5-6.2-2.5s-4.6,0.8-6.3,2.5C533.6,65.9,532.8,68.1,532.8,70.7z"/>
		<path class="st0" d="M569.1,55.8l6.3,15.7c0.8,2,1.5,3.9,2,5.8c0.4-1.8,1-3.8,1.8-6l5.7-15.5h7.8L578.7,92c-0.9,2.3-1.7,3.9-2.6,5
			c-0.8,1.1-2,2-3.5,2.7c-1.5,0.7-3.2,1.1-5.1,1.1c-2.1,0-4.1-0.3-6-0.9l0.9-6.4c1.3,0.5,2.6,0.8,3.8,0.8c1.4,0,2.6-0.3,3.4-0.9
			c0.9-0.6,1.6-1.6,2.2-3.1l1.7-4.3l-12.7-30.1H569.1z"/>
	</g>
</g>
</svg>
